<mxfile host="app.diagrams.net" agent="Mozilla/5.0 (Macintosh; Intel Mac OS X 10_15_7) AppleWebKit/605.1.15 (KHTML, like Gecko) Version/17.5 Safari/605.1.15" version="24.7.7">
  <diagram name="Page-1" id="AT_nqOS4zzcdeuS5JJ4l">
    <mxGraphModel dx="710" dy="473" grid="1" gridSize="10" guides="1" tooltips="1" connect="1" arrows="1" fold="1" page="1" pageScale="1" pageWidth="827" pageHeight="1169" math="1" shadow="0">
      <root>
        <mxCell id="0" />
        <mxCell id="1" parent="0" />
        <mxCell id="ytL0lNFW1p2HGi3SyrYe-4" value="$$\mathbf{V}_{\color{darkred}C}^T$$" style="shape=trapezoid;perimeter=trapezoidPerimeter;whiteSpace=wrap;html=1;fixedSize=1;rotation=0;direction=south;fillColor=#f5f5f5;strokeColor=#666666;fontColor=#333333;" parent="1" vertex="1">
          <mxGeometry x="390.5" y="90" width="40" height="76" as="geometry" />
        </mxCell>
        <mxCell id="er_bb7br4c2qhOnfUv4e-21" style="edgeStyle=orthogonalEdgeStyle;rounded=0;orthogonalLoop=1;jettySize=auto;html=1;exitX=0.5;exitY=1;exitDx=0;exitDy=0;" edge="1" parent="1" source="ytL0lNFW1p2HGi3SyrYe-5" target="ytL0lNFW1p2HGi3SyrYe-11">
          <mxGeometry relative="1" as="geometry">
            <Array as="points">
              <mxPoint x="485" y="128" />
            </Array>
          </mxGeometry>
        </mxCell>
        <mxCell id="ytL0lNFW1p2HGi3SyrYe-5" value="$$\mathbf{U}_{\color{darkred}C}$$" style="shape=trapezoid;perimeter=trapezoidPerimeter;whiteSpace=wrap;html=1;fixedSize=1;rotation=0;direction=north;fillColor=#f5f5f5;strokeColor=#666666;fontColor=#333333;" parent="1" vertex="1">
          <mxGeometry x="430.5" y="90" width="40" height="76" as="geometry" />
        </mxCell>
        <mxCell id="er_bb7br4c2qhOnfUv4e-19" style="edgeStyle=orthogonalEdgeStyle;rounded=0;orthogonalLoop=1;jettySize=auto;html=1;exitX=1;exitY=0.5;exitDx=0;exitDy=0;entryX=0;entryY=0.5;entryDx=0;entryDy=0;" edge="1" parent="1" source="ytL0lNFW1p2HGi3SyrYe-1" target="ytL0lNFW1p2HGi3SyrYe-11">
          <mxGeometry relative="1" as="geometry" />
        </mxCell>
        <mxCell id="ytL0lNFW1p2HGi3SyrYe-1" value="$$\mathbf{W}$$" style="whiteSpace=wrap;html=1;aspect=fixed;fillColor=#f5f5f5;strokeColor=#666666;fontColor=#333333;" parent="1" vertex="1">
          <mxGeometry x="324" y="230" width="90" height="90" as="geometry" />
        </mxCell>
        <mxCell id="ytL0lNFW1p2HGi3SyrYe-2" value="$$\mathbf{V}_{\color{darkred}1}^T$$" style="shape=trapezoid;perimeter=trapezoidPerimeter;whiteSpace=wrap;html=1;fixedSize=1;rotation=0;direction=south;fillColor=#f5f5f5;strokeColor=#666666;fontColor=#333333;" parent="1" vertex="1">
          <mxGeometry x="340.5" y="144" width="40" height="76" as="geometry" />
        </mxCell>
        <mxCell id="er_bb7br4c2qhOnfUv4e-15" style="edgeStyle=orthogonalEdgeStyle;rounded=0;orthogonalLoop=1;jettySize=auto;html=1;exitX=0.25;exitY=1;exitDx=0;exitDy=0;entryX=0.5;entryY=0;entryDx=0;entryDy=0;" edge="1" parent="1" source="ytL0lNFW1p2HGi3SyrYe-3" target="ytL0lNFW1p2HGi3SyrYe-11">
          <mxGeometry relative="1" as="geometry" />
        </mxCell>
        <mxCell id="ytL0lNFW1p2HGi3SyrYe-3" value="$$\mathbf{U}_{\color{darkred}1}$$" style="shape=trapezoid;perimeter=trapezoidPerimeter;whiteSpace=wrap;html=1;fixedSize=1;rotation=0;direction=north;fillColor=#f5f5f5;strokeColor=#666666;fontColor=#333333;" parent="1" vertex="1">
          <mxGeometry x="380.5" y="144" width="40" height="76" as="geometry" />
        </mxCell>
        <mxCell id="er_bb7br4c2qhOnfUv4e-6" style="edgeStyle=orthogonalEdgeStyle;rounded=0;orthogonalLoop=1;jettySize=auto;html=1;exitX=0.25;exitY=0;exitDx=0;exitDy=0;entryX=0.5;entryY=1;entryDx=0;entryDy=0;" edge="1" parent="1" source="ytL0lNFW1p2HGi3SyrYe-6" target="ytL0lNFW1p2HGi3SyrYe-4">
          <mxGeometry relative="1" as="geometry" />
        </mxCell>
        <mxCell id="ytL0lNFW1p2HGi3SyrYe-6" value="$$\mathbf{\pi}^{\color{green}k}_{\color{darkred}C}$$&lt;div&gt;––––&lt;div&gt;&lt;div&gt;...&lt;/div&gt;&lt;div&gt;____&lt;br&gt;&lt;/div&gt;&lt;div&gt;$$\mathbf{\pi}^{\color{green}k}_{\color{darkred}1}$$&lt;/div&gt;&lt;/div&gt;&lt;/div&gt;" style="rounded=1;whiteSpace=wrap;html=1;direction=south;fillColor=#f5f5f5;strokeColor=#666666;fontColor=#333333;" parent="1" vertex="1">
          <mxGeometry x="284" y="98" width="30" height="120" as="geometry" />
        </mxCell>
        <mxCell id="ytL0lNFW1p2HGi3SyrYe-12" style="edgeStyle=orthogonalEdgeStyle;rounded=0;orthogonalLoop=1;jettySize=auto;html=1;exitX=0.5;exitY=0;exitDx=0;exitDy=0;entryX=0;entryY=0.5;entryDx=0;entryDy=0;" parent="1" source="er_bb7br4c2qhOnfUv4e-10" target="ytL0lNFW1p2HGi3SyrYe-1" edge="1">
          <mxGeometry relative="1" as="geometry">
            <mxPoint x="236" y="275" as="sourcePoint" />
          </mxGeometry>
        </mxCell>
        <mxCell id="er_bb7br4c2qhOnfUv4e-2" style="edgeStyle=orthogonalEdgeStyle;rounded=0;orthogonalLoop=1;jettySize=auto;html=1;exitX=0.5;exitY=0;exitDx=0;exitDy=0;entryX=0.25;entryY=1;entryDx=0;entryDy=0;" edge="1" parent="1" source="er_bb7br4c2qhOnfUv4e-10" target="ytL0lNFW1p2HGi3SyrYe-6">
          <mxGeometry relative="1" as="geometry">
            <mxPoint x="236" y="275" as="sourcePoint" />
            <Array as="points">
              <mxPoint x="264" y="274" />
              <mxPoint x="264" y="128" />
            </Array>
          </mxGeometry>
        </mxCell>
        <mxCell id="er_bb7br4c2qhOnfUv4e-20" style="edgeStyle=orthogonalEdgeStyle;rounded=0;orthogonalLoop=1;jettySize=auto;html=1;exitX=1;exitY=0.5;exitDx=0;exitDy=0;entryX=0.5;entryY=1;entryDx=0;entryDy=0;" edge="1" parent="1" source="ytL0lNFW1p2HGi3SyrYe-11" target="er_bb7br4c2qhOnfUv4e-11">
          <mxGeometry relative="1" as="geometry" />
        </mxCell>
        <mxCell id="ytL0lNFW1p2HGi3SyrYe-11" value="$$+$$" style="ellipse;whiteSpace=wrap;html=1;aspect=fixed;verticalAlign=middle;align=center;" parent="1" vertex="1">
          <mxGeometry x="473.5" y="263.5" width="23" height="23" as="geometry" />
        </mxCell>
        <mxCell id="ytL0lNFW1p2HGi3SyrYe-26" value="$$\text{Client } {\color{green}k}$$" style="text;html=1;align=center;verticalAlign=middle;resizable=0;points=[];autosize=1;strokeColor=none;fillColor=none;fontSize=11;" parent="1" vertex="1">
          <mxGeometry x="204" y="68" width="190" height="30" as="geometry" />
        </mxCell>
        <mxCell id="ytL0lNFW1p2HGi3SyrYe-27" value="$${\color{darkred} C} \times \text{Adaptors}$$" style="text;html=1;align=center;verticalAlign=middle;resizable=0;points=[];autosize=1;strokeColor=none;fillColor=none;fontSize=11;" parent="1" vertex="1">
          <mxGeometry x="310" y="68" width="250" height="30" as="geometry" />
        </mxCell>
        <mxCell id="er_bb7br4c2qhOnfUv4e-5" style="edgeStyle=orthogonalEdgeStyle;rounded=0;orthogonalLoop=1;jettySize=auto;html=1;exitX=0.865;exitY=-0.01;exitDx=0;exitDy=0;entryX=0.75;entryY=1;entryDx=0;entryDy=0;exitPerimeter=0;" edge="1" parent="1">
          <mxGeometry relative="1" as="geometry">
            <mxPoint x="314.29999999999995" y="195.80000000000007" as="sourcePoint" />
            <mxPoint x="340.5" y="195" as="targetPoint" />
          </mxGeometry>
        </mxCell>
        <mxCell id="er_bb7br4c2qhOnfUv4e-10" value="$$\mathbf{x}$$" style="rounded=1;whiteSpace=wrap;html=1;rotation=0;direction=south;" vertex="1" parent="1">
          <mxGeometry x="223" y="242" width="25" height="65" as="geometry" />
        </mxCell>
        <mxCell id="er_bb7br4c2qhOnfUv4e-11" value="$$\mathbf{y}$$" style="rounded=1;whiteSpace=wrap;html=1;rotation=0;direction=south;" vertex="1" parent="1">
          <mxGeometry x="514" y="243" width="25" height="65" as="geometry" />
        </mxCell>
        <mxCell id="er_bb7br4c2qhOnfUv4e-16" value="$$\cdots$$" style="text;html=1;align=center;verticalAlign=middle;resizable=0;points=[];autosize=1;strokeColor=none;fillColor=none;rotation=-35;" vertex="1" parent="1">
          <mxGeometry x="399.5" y="165" width="80" height="30" as="geometry" />
        </mxCell>
        <mxCell id="er_bb7br4c2qhOnfUv4e-22" style="edgeStyle=orthogonalEdgeStyle;rounded=0;orthogonalLoop=1;jettySize=auto;html=1;exitX=0.5;exitY=0;exitDx=0;exitDy=0;entryX=0.851;entryY=0.99;entryDx=0;entryDy=0;entryPerimeter=0;" edge="1" parent="1" source="er_bb7br4c2qhOnfUv4e-10" target="ytL0lNFW1p2HGi3SyrYe-6">
          <mxGeometry relative="1" as="geometry">
            <Array as="points">
              <mxPoint x="264" y="274" />
              <mxPoint x="264" y="200" />
            </Array>
          </mxGeometry>
        </mxCell>
      </root>
    </mxGraphModel>
  </diagram>
</mxfile>
